<svg version="1.0" id="Layer_1" xmlns="http://www.w3.org/2000/svg" x="0" y="0" viewBox="0 0 598.9 125" xml:space="preserve"><style>.st0{fill:#fff}</style><path class="st0" d="M158.9 83.3c4.3 0 8-1.7 10.9-4.8l-.8-.9c-2.1 2-4.6 3-7.6 3-7.1 0-9.6-5.3-9.9-11.5 7-1.6 11.7-3 17.7-4.9-2-4.1-4.9-8.1-9.9-8.1-7.6 0-11.2 7.7-11.2 14.4-.1 6.6 3.4 12.8 10.8 12.8zm-.6-25.6c3.3 0 5.6 3.6 6.6 6.4l-13.4 3.6c0-4.5 2.5-10 6.8-10zM17.1 48.5v27c0 2.5 0 5.1-.4 7.5h1l1.2-2.9c2.3 1.9 5.5 3.1 8.7 3.1 8.1 0 12.8-6.7 12.8-14.3 0-6.2-3.1-13-10.1-13-3.4 0-5.9 1.7-9.7 4.5v-20c-2.7.7-5.5 1.2-8.3 1.4v1.4h3.2c1 0 1.6 0 1.6 5.3zm3.5 13.9c2.3-2 4.3-3.4 7.4-3.4 6.3 0 8.8 5.5 8.8 11.1 0 6.3-3.1 11.7-9.7 11.7-2.3 0-4.6-.9-6.5-2.3V62.4zm68.6-12.7c1.2 0 2.2-1 2.2-2.3 0-1.2-1-2.2-2.2-2.2-1.2 0-2.2 1-2.2 2.2 0 1.2 1 2.3 2.2 2.3zM55.3 83.3c4.3 0 8-1.7 10.9-4.8l-.8-.9c-2.1 2-4.6 3-7.6 3-7.1 0-9.6-5.3-9.9-11.5 7-1.6 11.7-3 17.7-4.9-2-4.1-4.9-8.1-9.9-8.1-7.6 0-11.2 7.7-11.2 14.4 0 6.6 3.5 12.8 10.8 12.8zm-.6-25.6c3.3 0 5.6 3.6 6.6 6.4l-13.4 3.6c0-4.5 2.6-10 6.8-10zm33.1 6v16.6c0 .6-.6.6-1.1.6h-2.2v1.4h11.6v-1.4h-2.4c-2.2 0-2.5 0-2.5-9V56.1c-.9 0-2.3.2-4.1.5-1.4.1-3.3.4-4.1.4v1.4h3.2c1 0 1.6 0 1.6 5.3zm20.8 19.6c4.3 0 8-1.7 10.9-4.8l-.8-.9c-2.1 2-4.6 3-7.6 3-7.1 0-9.6-5.3-9.9-11.5 7-1.6 11.7-3 17.7-4.9-2-4.1-4.9-8.1-9.9-8.1-7.6 0-11.2 7.7-11.2 14.4-.1 6.6 3.4 12.8 10.8 12.8zm-.7-25.6c3.3 0 5.6 3.6 6.6 6.4l-13.4 3.6c0-4.5 2.6-10 6.8-10zm16.7 4.4c2 4.2 7.5 18.1 8.1 20.1.5 1.2.7 1.2.9 1.2.3 0 .5-.2.7-.6 3-7.4 7.8-19.1 10-23.5.5-.8.7-.9 1.2-.9h2V57h-10.1v1.4h2.7c.7 0 1.5 0 1.5 1 0 2.4-2.3 8.9-6.7 18.2-5.2-12.7-7.7-18.1-7.7-18.8 0-.4.4-.4 1-.4h2.9V57h-10.8v1.4h1.6c.9 0 1.4 1 2.7 3.7zm-52-13.6v31.8c0 .6-.6.6-1.1.6h-2.2v1.4H81v-1.4h-2.4c-2.2 0-2.5 0-2.5-9V40.4c-2.7.7-5.5 1.2-8.3 1.4v1.4H71c1 0 1.6 0 1.6 5.3zm521 41.6l-5.6-5.2v4.3H481.9v1.7H588v4.4z"/><path class="st0" d="M469.1 89.2H360.6V37.4H354v5.9c-33.3-15.6-63.4-21-89-21-42.4 0-72.1 14.5-82.5 20.5v-13C192 24.3 221.9 9.1 265 9.1c26.4 0 57.7 5.7 92.4 22.8l.7-1.5C323.3 13.2 291.6 7.5 265 7.5c-42.4 0-72.1 14.5-82.5 20.5h-6.6v61.3H7.8V91h174.7V44.7C192 39.2 221.9 24 265 24c25.5 0 55.7 5.3 89 21.1v44.2h-8.6V91h8.6v25.6h6.6V90.9h108.5v-1.7zm-34.5 22.7l-3.6-9.3h-3.8V116h2.6v-9.8h.1l3.6 9.8h3.7v-13.4h-2.6zm30.3 0l-3.6-9.3h-3.7V116h2.6v-9.8l3.6 9.8h3.7v-13.4h-2.6z"/><path class="st0" d="M420.6 102.4c-4.6 0-4.6 3.4-4.6 6.9 0 3.5 0 6.9 4.6 6.9s4.6-3.4 4.6-6.9c0-3.5 0-6.9-4.6-6.9zm0 11.8c-1.6 0-1.8-1.5-1.8-4.9 0-3.4.2-4.9 1.8-4.9s1.8 1.5 1.8 4.9c0 3.4-.3 4.9-1.8 4.9zm25.6-8.4c0-.9.5-1.4 1.4-1.4 1.1 0 1.3 1 1.3 2h2.7c.2-2.8-1.2-4-3.9-4-3.4 0-4.4 1.7-4.4 3.8 0 4 5.6 4.1 5.6 6.5 0 .9-.5 1.5-1.4 1.5-1.5 0-1.6-1.1-1.6-2.4h-2.8c-.1 2.3.5 4.3 4 4.3 2.1 0 4.7-.4 4.7-3.9 0-4.1-5.6-3.8-5.6-6.4zm-63.2-3.2l-3.7 13.4h2.8l.8-3h3.8l.7 3h2.9l-3.6-13.4H383zm.3 8.4l1.3-5.8 1.4 5.8h-2.7zm-10-6.6c1.5 0 1.7 1.1 1.7 2.3h2.8c.2-2.8-1.5-4.3-4.3-4.3-4.6 0-4.7 3.4-4.7 6.8 0 5.1.5 7 5.2 7 1.1 0 3-.3 3.8-.4V109h-4.3v2.1h1.5v3c-.4.1-.9.3-1.4.3-1.6 0-2-.7-2-4.9 0-2.8 0-5.1 1.7-5.1zm38 7.5l-3.6-9.3H404V116h2.6v-9.8l3.7 9.8h3.6v-13.4h-2.6zm-12.2 0l-3.6-9.3h-3.7V116h2.6v-9.8l3.7 9.8h3.6v-13.4h-2.6zm39.9-5.6h1.8l1.3-3.7h-2.5zm95.3-1.5h3.1V116h2.8v-11.2h3.1v-2.2h-9zm16.7 7.1c0 1.5-.6 2.3-1.8 2.3-1 0-1.7-.6-1.7-2.3v-9.3h-2.8v9.5c0 2.5 1.5 4.1 4.6 4.1 3.4 0 4.5-2.1 4.5-4.1v-9.5H551v9.3zm-20.8 0l-3.6-9.3h-3.8V116h2.6v-9.8h.1l3.6 9.8h3.7v-13.4h-2.6zm40-3.6l-2-5.7h-3.1l3.5 8.8v4.6h2.8v-4.6l3.8-8.8h-2.9zm-8.5 1.1c1.8-.3 2.5-1.6 2.5-3.3 0-2.3-1.2-3.5-3.1-3.5h-5.2V116h2.8v-5.5h.7c2.1 0 2 1.3 2 2.9 0 .9-.1 1.8.3 2.6h2.7c-.3-.6-.3-3.1-.3-3.9.1-2.5-1.7-2.6-2.4-2.7zm-1.7-1h-1.2v-3.7h1.2c.9 0 1.4.5 1.4 1.8 0 .8-.3 1.9-1.4 1.9zm-52.1 5.8c-1.6 0-1.8-1.5-1.8-4.9 0-3.4.2-4.9 1.8-4.9.8 0 1.1.7 1.1 2.4h2.7c.1-2.9-1-4.4-3.9-4.4-4.6 0-4.6 3.4-4.6 6.9 0 3.5 0 6.9 4.6 6.9 2.6 0 4-1.1 4-4.7H509c.2 1 .2 2.7-1.1 2.7zm-18.5-9.4h3.1V116h2.8v-11.2h3.1v-2.2h-9zm-.9-2.2h-3l-1.8 4.4-1.9-4.4h-3.2l3.2 6.4-3.5 7h2.9l2.1-4.6 2 4.6h3.2l-3.4-6.8zm28 7.4h4.1v-2h-4.1v-3.3h4.4v-2.1h-7.2V116h7.4v-2.1h-4.6zm-44 0h4.2v-2h-4.2v-3.3h4.5v-2.1h-7.3V116h7.5v-2.1h-4.7zM230.7 71.9v-8.5c0-3.6-1.5-7.4-7.2-7.4-3.9 0-7 2.2-10.1 4.8V56c-.9 0-2.3.2-4.1.5-1.4.2-3.3.5-4.2.5v1.4h3.1c1 0 1.7 0 1.7 5.3v16.6c0 .6-.6.6-1.1.6h-2.2v1.4h11.6v-1.4h-2.4c-2.2 0-2.5 0-2.5-9v-9.3c2.6-2.2 5.3-3.9 8.9-3.9 2.7 0 4.9 1.4 4.9 6.1v15.5c0 .6-.6.6-1.1.6h-2.2v1.4h11.6v-1.4H233c-2 0-2.3 0-2.3-9zm-32.3 0V56c-.9 0-2.3.2-4.1.5-1.4.2-3.3.5-4.2.5v1.4h3.2c1 0 1.7 0 1.7 5.3v16.6c0 .6-.6.6-1.1.6h-2.2v1.4h11.6v-1.4h-2.4c-2.2 0-2.5 0-2.5-9zm-2.1-22.3c1.2 0 2.2-1 2.2-2.3 0-1.2-1-2.2-2.2-2.2-1.2 0-2.2 1-2.2 2.2 0 1.3 1 2.3 2.2 2.3zm45.5 13c0-3.1 3.4-4.6 5.9-4.6 5.2 0 6.4 2.7 6.7 3.2.2.3.2.5.7.5.3 0 .4-.2.4-.4 0-.4-.2-2.4-.4-4-1.9-.9-4.2-1.2-6.7-1.2-5.3 0-9.3 3.7-9.3 7.7 0 9.3 14.9 5.2 14.9 12.1 0 3.7-3.7 5.5-6.8 5.5-3 0-7.2-1.6-7.7-3.8-.1-.4-.2-1-.7-1-.4 0-.7.2-.7.5 0 .6.4 2.9.8 5.1 2.1.8 4.4 1.1 6.7 1.1 5.1 0 11.3-2.4 11.3-8.3.1-9.5-15.1-6-15.1-12.4zm71.1-1.5V56c-.9 0-2.3.2-4.1.5-1.4.2-3.3.5-4.2.5v1.4h3.1c1 0 1.7 0 1.7 5.3v16.6c0 .6-.6.6-1.1.6h-2.2v1.4h11.6v-1.4h-2.4c-2.2 0-2.5 0-2.5-9V63c2.6-2.7 4.1-3.5 6-3.5 3.2 0 2.6 1.8 3.4 1.8.4 0 .6-.2 1.2-4-.7-.8-1.8-1.3-2.8-1.3-1.6 0-3.2 1.1-7.7 5.1zM346 77.6c-2.1 2-4.6 3-7.6 3-7.1 0-9.6-5.3-9.9-11.5 7-1.6 11.7-3 17.7-4.9-2-4.1-4.9-8.1-9.9-8.1-7.6 0-11.2 7.7-11.2 14.4s3.5 12.8 10.9 12.8c4.3 0 8-1.7 10.9-4.8l-.9-.9zm-10.7-20c3.3 0 5.6 3.6 6.6 6.4l-13.4 3.6c0-4.4 2.6-10 6.8-10zm-58-1.6c-3.4 0-5.9 1.7-9.7 4.5V56c-.9 0-2.3.2-4.1.5-1.4.2-3.3.5-4.2.5v1.4h3.2c1 0 1.7 0 1.7 5.3V95c0 .6-.6.6-1.1.6h-2.2V97h11.6v-1.4h-2.4c-2.2 0-2.5 0-2.5-9v-5.4c2.3 1.5 4.7 2.1 7.1 2.1 8.1 0 12.8-6.7 12.8-14.3-.1-6.2-3.2-13-10.2-13zM274 81.6c-2.3 0-4.6-.9-6.5-2.3v-17c2.3-2 4.3-3.4 7.4-3.4 6.3 0 8.8 5.5 8.8 11.1.1 6.2-3 11.6-9.7 11.6zm23.5-9.7V56c-.9 0-2.3.2-4.1.5-1.4.2-3.3.5-4.2.5v1.4h3.1c1 0 1.7 0 1.7 5.3v16.6c0 .6-.6.6-1.1.6h-2.2v1.4h11.6v-1.4H300c-2.2 0-2.5 0-2.5-9zm-2-22.3c1.2 0 2.2-1 2.2-2.3 0-1.2-1-2.2-2.2-2.2-1.2 0-2.2 1-2.2 2.2 0 1.3 1 2.3 2.2 2.3zm191.8 24.8c0 4.6 1.8 9 7.5 9 7.6 0 14.3-8.2 14.3-18.5 0-4.6-1.8-9-7.5-9-7.6 0-14.3 8.3-14.3 18.5zm12.9-16.9c4.3 0 5.2 4.8 5.2 8.5 0 5.7-2.3 15.9-9.3 15.9-4.3 0-5.2-4.8-5.2-8.5.1-5.7 2.3-15.9 9.3-15.9zm-38.4 26c4 0 9-2.7 9-7.2 0-6.9-10.6-9.7-10.6-13.9 0-2.3 1.7-5.1 6.1-5.1.9 1.5 2.1 2.6 3.7 2.6.8 0 1.6-.5 1.6-1.4 0-2-3.3-2.7-4.8-2.7-4.2 0-9.4 3-9.4 7.4 0 6.4 10.2 8.9 10.2 13.9 0 3.2-2.6 4.8-5.6 4.8-.7 0-1.3-.1-1.9-.4-.7-1.4-2-3.1-3.7-3.1-.9 0-1.5.5-1.5 1.4 0 2.7 5 3.7 6.9 3.7zm54.5-25.1c.5 0 .7.5.7 1.3 0 1.7-.9 8.3-2.9 22.6h3.2l1-6.8c1.4-9.5 7.5-16.7 8.8-16.8.8.3 1.5.5 2.3.5 1.1 0 2.7-.5 2.7-1.8 0-1-.9-1.5-1.8-1.5-4.9 0-8.7 7.5-10.5 11.2l-.1-.1c.6-3.5 1.1-8.7 1.1-10.6 0-.4-.3-.5-.6-.5-1 0-4.9.9-8 3.4l.5 1c.5-.5 2.7-1.9 3.6-1.9zm21.4 0c.5 0 .7.5.7 1.3 0 1.7-.9 8.3-2.9 22.6h3.2l1-6.8c1.5-9.8 7.4-16.6 10.6-16.6 2 0 2.3 2 2.3 3.6 0 1.4-1.6 11.2-2.8 19.7h3.2l1-6.8c1.5-9.8 7.4-16.6 10.6-16.6 2 0 2.3 2 2.3 3.6 0 4.2-2.2 14.9-2.2 17.6 0 1.5.4 2.8 1.1 2.8 1 0 5.5-2.4 8-4.2l-.6-1.1c-1.5.9-3.6 2.1-4.2 2.1-.4 0-.8-1-.8-1.9 0-1.9 1.9-13.8 1.9-16.7 0-2.4-.9-5.3-3.9-5.3-4.5 0-9.2 7.3-10.7 11.4l-.3-.2c.3-2.3.6-4.5.6-5.9 0-2.4-.9-5.3-3.9-5.3-4.5 0-9.2 7.3-10.7 11.2l-.2.1c.6-3.5 1.1-8.7 1.1-10.6 0-.4-.3-.5-.6-.5-1 0-4.9.9-8 3.4l.5 1c.7-.5 2.9-1.9 3.7-1.9zm-150.2 0c.5 0 .7.5.7 1.3 0 1.7-.9 8.3-2.9 22.6h3.2l1-6.8c1.4-9.5 7.5-16.7 8.8-16.8.8.3 1.5.5 2.3.5 1.1 0 2.7-.5 2.7-1.8 0-1-.9-1.5-1.8-1.5-4.9 0-8.7 7.5-10.5 11.2l-.1-.1c.6-3.5 1.1-8.7 1.1-10.6 0-.4-.3-.5-.6-.5-1 0-4.9.9-8 3.4l.5 1c.5-.5 2.7-1.9 3.6-1.9zm-19.2 20.8c0 2.3.7 4.2 3.4 4.2 2.8 0 6.4-2.2 8.3-4.1l-.6-1c-1.5 1.2-3.6 2.6-5.6 2.6-1.8 0-2-1.7-2-3.1 0-3.6 1.1-10.2 2.8-19.4h5.7l.2-1.4h-5.8l1.5-7.8-1.8.2c-.8 2.1-2.1 5.6-2.5 6.4-.7 1.2-1.1 1.2-3.6 1.2l-.2 1.4h3.3c-2.1 9-3.1 16.5-3.1 20.8z"/><path class="st0" d="M479.5 81.9c.2-1.8 1.1-8.2 2.7-23.5h4.5l.3-1.4h-4.6l.5-4.7c.9-7.8 3.2-10.7 6.2-10.7.8.8 1.7 1.7 2.9 1.7.7 0 1.4-.4 1.4-1.2 0-1.5-2.2-2.1-3.4-2.1-5.9 0-9.4 5.3-10.5 13.5l-.5 3.4h-3.7l-.3 1.4h3.9c-1 8.9-2.1 19.5-2.4 22.2-1 8.5-2.4 14.9-7.4 14.9h-.4c-.7-1.1-1.7-1.9-3-1.9-.8 0-1.8.5-1.8 1.4 0 1.7 2.5 2.1 3.8 2.1 2.4.2 10.4-1.4 11.8-15.1zM431 58.4c.5 0 .7.5.7 1.3 0 1.7-.9 8.3-2.9 22.6h3.2l1-6.8c1.5-9.8 7.4-16.6 10.6-16.6 2 0 2.3 2 2.3 3.6 0 4.2-2.2 14.9-2.2 17.6 0 1.5.4 2.8 1.1 2.8 1 0 5.5-2.4 8-4.2l-.6-1.1c-1.5.9-3.6 2.1-4.2 2.1-.4 0-.8-1-.8-1.9 0-1.9 1.9-13.8 1.9-16.7 0-2.4-.9-5.3-3.9-5.3-4.5 0-9.2 7.3-10.7 11.2l-.1-.1c.6-3.5 1.1-8.7 1.1-10.6 0-.4-.3-.5-.6-.5-1 0-4.9.9-8 3.4l.5 1c.6-.4 2.8-1.8 3.6-1.8zm-24.6 25.1c4.8 0 8.8-6.4 10.7-10.5l.2.1c-.2 2.6-.5 5.7-.5 7.6 0 1.5.4 2.8 1.1 2.8 1 0 5.5-2.4 8-4.2l-.6-1.1c-1.5.9-3.6 2.1-4.2 2.1-.4 0-.8-1-.8-1.9 0-9.3 1.1-15.5 3.2-23.7-1.8.1-2 .4-2 2-1.2-.4-2.5-.5-3.8-.5-9.7 0-16.9 9.7-16.9 19-.1 3.6 1.3 8.3 5.6 8.3zm10.7-25.9c.7 0 1.5.1 2.2.4l-.7 5.3c-1.4 11.1-7.2 17.1-10.6 17.1-3.3 0-3.7-3.7-3.7-5.9 0-10.6 6.5-16.9 12.8-16.9zm64.8 33.3h107.5v-1.6H481.9"/><path class="st0" d="M345.4 90.9h123.7v-1.6H345.4M7.8 90.9h171.4v-1.6H7.8"/></svg>