<?xml version="1.0" encoding="utf-8"?>
<!-- Generator: Adobe Illustrator 26.0.2, SVG Export Plug-In . SVG Version: 6.00 Build 0)  -->
<svg version="1.1" id="Layer_1" xmlns="http://www.w3.org/2000/svg" xmlns:xlink="http://www.w3.org/1999/xlink" x="0px" y="0px"
	 viewBox="0 0 512 512" style="enable-background:new 0 0 512 512;" xml:space="preserve">
<style type="text/css">
	.st0{fill:#FBAF3F;}
</style>
<path class="st0" d="M0,256C0,114.6,114.6,0,256,0s256,114.6,256,256S397.4,512,256,512S0,397.4,0,256z M175,208.1l47.1,47L175,303
	c-9.3,9.4-9.3,24.6,0,33.1c9.4,10.2,24.6,10.2,33.1,0l47-46.2l47.9,46.2c9.4,10.2,24.6,10.2,33.1,0c10.2-8.5,10.2-23.7,0-33.1
	l-46.2-47.9l46.2-47c10.2-8.5,10.2-23.7,0-33.1c-8.5-9.3-23.7-9.3-33.1,0l-47.9,47.1l-47-47.1c-8.5-9.3-23.7-9.3-33.1,0
	C165.7,184.4,165.7,199.6,175,208.1L175,208.1z"/>
</svg>
